<?xml version="1.0"?>
<svg xmlns="http://www.w3.org/2000/svg" height="512px" viewBox="0 0 512 512" width="512px"><g><path d="m221.917969 442.878906c-.03125.285156-.050781.570313-.050781.855469-.105469 18.851563 15.09375 34.214844 33.945312 34.320313 18.851562.101562 34.21875-15.09375 34.320312-33.945313 0-.289063 0-.589844-.042968-.855469-1.3125-12.695312-19.625-37.050781-27.390625-46.933594-1.675781-1.953124-4.125-3.078124-6.699219-3.078124s-5.023438 1.125-6.699219 3.078124c-7.808593 9.867188-26.09375 34.230469-27.382812 46.558594zm34.132812-27.203125c7.199219 8.699219 12.960938 18.492188 17.066407 29.011719-.09375 9.425781-7.8125 16.992188-17.238282 16.898438-9.425781-.09375-16.988281-7.8125-16.894531-17.238282 4.175781-10.378906 9.914063-20.0625 17.015625-28.707031zm0 0" data-original="#000000" class="active-path" data-old_color="#000000" fill="#590202"/><path d="m503.464844 0c-4.710938 0-8.53125 3.820312-8.53125 8.535156v42.664063c-.152344 119.773437-95.253906 217.851562-214.964844 221.6875-3.617188-10.128907-13.214844-16.886719-23.96875-16.886719s-20.351562 6.757812-23.96875 16.886719c-119.710938-3.835938-214.8125-101.914063-214.964844-221.6875v-42.664063c0-4.714844-3.820312-8.535156-8.53125-8.535156-4.714844 0-8.535156 3.820312-8.535156 8.535156v42.664063c.160156 129.148437 102.828125 234.84375 231.917969 238.753906.875 2.535156 2.144531 4.914063 3.765625 7.050781-9.433594 6.921875-14.621094 18.230469-13.710938 29.894532.90625 11.667968 7.78125 22.035156 18.171875 27.414062-17.800781 19.660156-52.410156 61.464844-52.410156 89.421875 0 37.703125 30.5625 68.265625 68.265625 68.265625s68.265625-30.5625 68.265625-68.265625c0-27.957031-34.609375-69.761719-52.410156-89.421875 10.390625-5.378906 17.265625-15.746094 18.171875-27.414062.910156-11.664063-4.277344-22.972657-13.710938-29.894532 1.621094-2.136718 2.890625-4.515625 3.765625-7.050781 129.089844-3.910156 231.757813-109.605469 231.917969-238.753906v-42.664063c0-4.714844-3.820312-8.535156-8.535156-8.535156zm-247.464844 494.933594c-28.265625-.027344-51.171875-22.933594-51.199219-51.199219 0-21.511719 32.757813-61.441406 51.199219-81.46875 18.441406 19.976563 51.199219 59.929687 51.199219 81.46875-.027344 28.265625-22.933594 51.171875-51.199219 51.199219zm0-153.601563c-9.425781 0-17.066406-7.640625-17.066406-17.066406s7.640625-17.066406 17.066406-17.066406 17.066406 7.640625 17.066406 17.066406-7.640625 17.066406-17.066406 17.066406zm-8.535156-59.730469c0-4.714843 3.824218-8.535156 8.535156-8.535156s8.535156 3.820313 8.535156 8.535156c0 4.710938-3.824218 8.53125-8.535156 8.53125s-8.535156-3.820312-8.535156-8.53125zm0 0" data-original="#000000" class="active-path" data-old_color="#000000" fill="#590202"/></g> </svg>
