<?xml version="1.0"?>
<svg xmlns="http://www.w3.org/2000/svg" viewBox="0 0 512 512" width="512px" height="512px" class=""><g><path d="m512 256c0 83.398438-40.199219 158.5-102 205-8.398438 6.300781-17.097656 11.699219-26.101562 17.101562l-8.097657-66.601562c46.199219-35.699219 76.199219-92.800781 76.199219-155.5 0-107.402344-88.597656-196-196-196s-196 88.597656-196 196c0 62.699219 29.699219 119.199219 75.902344 154.898438-11.703125 16.800781-24.003906 33.601562-35.402344 48.601562-60.898438-46.5-100.5-120.699219-100.5-203.5 0-140.699219 115.300781-256 256-256s256 115.300781 256 256zm0 0" fill="#ffd400" data-original="#FFD400" class="active-path" data-old_color="#ffd400" style="fill:#590202"/><path d="m512 256c0 83.398438-40.199219 158.5-102 205-8.398438 6.300781-17.097656 11.699219-26.101562 17.101562l-8.097657-66.601562c46.199219-35.699219 76.199219-92.800781 76.199219-155.5 0-107.402344-88.597656-196-196-196v-60c140.699219 0 256 115.300781 256 256zm0 0" fill="#ff9f00" data-original="#FF9F00" class="" style="fill:#590202" data-old_color="#ff9f00"/><path d="m135 512c-41.351562 0-75-33.648438-75-75s33.648438-75 75-75 75 33.648438 75 75-33.648438 75-75 75zm0 0" fill="#ffe470" data-original="#FFE470" class="" data-old_color="#ffe470" style="fill:#590202"/><path d="m377 512c-41.351562 0-75-33.648438-75-75s33.648438-75 75-75 75 33.648438 75 75-33.648438 75-75 75zm0 0" fill="#fdbf00" data-original="#FDBF00" class="" data-old_color="#fdbf00" style="fill:#590202"/></g> </svg>
