<?xml version="1.0"?>
<svg xmlns="http://www.w3.org/2000/svg" id="Solid" height="512px" viewBox="0 0 512 512" width="512px" class=""><g><path d="m432 304c0-97.047-78.953-176-176-176s-176 78.953-176 176 78.953 176 176 176 176-78.953 176-176zm-176 160c-88.224 0-160-71.775-160-160s71.776-160 160-160 160 71.775 160 160-71.776 160-160 160z" data-original="#000000" class="active-path" data-old_color="#000000" fill="#590202"/><path d="m296 80a16 16 0 0 0 0-32c-.268 0-.533.021-.8.033a39.965 39.965 0 0 1 -6.092 30.386 15.974 15.974 0 0 0 6.892 1.581z" data-original="#000000" class="active-path" data-old_color="#000000" fill="#590202"/><circle cx="256" cy="56" r="24" data-original="#000000" class="active-path" data-old_color="#000000" fill="#590202"/><path d="m216 48a16 16 0 1 0 6.891 30.419 39.965 39.965 0 0 1 -6.091-30.386c-.267-.012-.532-.033-.8-.033z" data-original="#000000" class="active-path" data-old_color="#000000" fill="#590202"/><path d="m280 113.5v-17.5h-48v17.5a193.133 193.133 0 0 1 48 0z" data-original="#000000" class="active-path" data-old_color="#000000" fill="#590202"/></g> </svg>
