<?xml version="1.0" encoding="UTF-8"?>
<svg xmlns="http://www.w3.org/2000/svg" xmlns:xlink="http://www.w3.org/1999/xlink" width="42pt" height="32pt" viewBox="0 0 42 32" version="1.1">
<defs>
<filter id="alpha" filterUnits="objectBoundingBox" x="0%" y="0%" width="100%" height="100%">
  <feColorMatrix type="matrix" in="SourceGraphic" values="0 0 0 0 1 0 0 0 0 1 0 0 0 0 1 0 0 0 1 0"/>
</filter>
<mask id="mask0">
  <g filter="url(#alpha)">
<rect x="0" y="0" width="42" height="32" style="fill:rgb(0%,0%,0%);fill-opacity:0.847059;stroke:none;"/>
  </g>
</mask>
<clipPath id="clip1">
  <rect x="0" y="0" width="42" height="32"/>
</clipPath>
<g id="surface5" clip-path="url(#clip1)">
<path style=" stroke:none;fill-rule:nonzero;fill:rgb(34.901961%,11.764706%,16.078431%);fill-opacity:1;" d="M 16.546875 11.175781 C 19.179688 11.175781 21.808594 11.175781 24.441406 11.171875 C 24.613281 11.171875 24.730469 11.238281 24.832031 11.363281 C 24.992188 11.566406 24.890625 11.867188 24.640625 11.921875 C 24.511719 11.949219 24.378906 11.964844 24.253906 11.984375 C 23.863281 12.042969 23.476562 12.09375 23.085938 12.152344 C 22.746094 12.199219 22.398438 12.25 22.054688 12.300781 C 21.707031 12.347656 21.359375 12.398438 21.011719 12.445312 C 20.667969 12.496094 20.324219 12.546875 19.988281 12.59375 C 19.636719 12.644531 19.289062 12.691406 18.9375 12.746094 C 18.59375 12.796875 18.246094 12.84375 17.902344 12.894531 C 17.554688 12.945312 17.207031 12.992188 16.859375 13.042969 C 16.519531 13.089844 16.171875 13.140625 15.828125 13.191406 C 15.445312 13.242188 15.0625 13.300781 14.679688 13.355469 C 14.335938 13.402344 13.992188 13.453125 13.652344 13.5 C 13.300781 13.550781 12.957031 13.601562 12.605469 13.652344 C 12.441406 13.679688 12.277344 13.699219 12.113281 13.722656 C 11.953125 13.746094 11.839844 13.855469 11.8125 14.011719 C 11.792969 14.113281 11.824219 14.203125 11.886719 14.285156 C 11.988281 14.417969 12.09375 14.546875 12.195312 14.683594 C 13.167969 15.914062 14.136719 17.148438 15.109375 18.378906 C 15.933594 19.429688 16.761719 20.476562 17.589844 21.527344 C 18.460938 22.636719 19.339844 23.75 20.214844 24.863281 C 20.683594 25.457031 21.15625 26.050781 21.625 26.644531 C 21.75 26.804688 21.929688 26.847656 22.089844 26.75 C 22.132812 26.71875 22.171875 26.683594 22.199219 26.640625 C 22.753906 25.9375 23.300781 25.230469 23.851562 24.519531 C 25.203125 22.78125 26.558594 21.039062 27.914062 19.296875 C 28.90625 18.023438 29.894531 16.746094 30.886719 15.476562 C 32.054688 13.972656 33.222656 12.472656 34.386719 10.96875 C 34.402344 10.953125 34.417969 10.933594 34.429688 10.917969 C 34.53125 10.78125 34.539062 10.640625 34.449219 10.5 C 34.253906 10.183594 34.058594 9.871094 33.855469 9.558594 C 33.132812 8.40625 32.40625 7.253906 31.683594 6.101562 C 31.621094 6.003906 31.582031 5.898438 31.609375 5.777344 C 31.667969 5.527344 31.96875 5.421875 32.171875 5.585938 C 32.191406 5.605469 32.207031 5.625 32.226562 5.640625 C 33.738281 7.160156 35.246094 8.671875 36.757812 10.191406 C 36.773438 10.207031 36.796875 10.226562 36.8125 10.25 C 36.921875 10.375 36.929688 10.546875 36.832031 10.683594 C 36.769531 10.765625 36.703125 10.839844 36.636719 10.914062 C 35.101562 12.6875 33.566406 14.464844 32.03125 16.242188 C 30.492188 18.023438 28.953125 19.808594 27.414062 21.585938 C 25.980469 23.25 24.542969 24.910156 23.109375 26.574219 C 22.8125 26.914062 22.523438 27.25 22.230469 27.589844 C 22.214844 27.605469 22.199219 27.625 22.183594 27.644531 C 22.035156 27.8125 21.796875 27.808594 21.648438 27.640625 C 21.5 27.460938 21.351562 27.285156 21.203125 27.109375 C 20.109375 25.804688 19.019531 24.5 17.921875 23.195312 C 16.871094 21.9375 15.8125 20.675781 14.757812 19.417969 C 13.640625 18.089844 12.53125 16.757812 11.414062 15.429688 C 10.398438 14.21875 9.382812 13.003906 8.367188 11.792969 C 8.277344 11.683594 8.234375 11.570312 8.273438 11.429688 C 8.316406 11.28125 8.445312 11.1875 8.597656 11.1875 C 8.621094 11.1875 8.640625 11.1875 8.664062 11.1875 C 11.285156 11.175781 13.914062 11.175781 16.546875 11.175781 Z M 16.546875 11.175781 "/>
<path style=" stroke:none;fill-rule:nonzero;fill:rgb(34.901961%,11.764706%,16.078431%);fill-opacity:1;" d="M 10.929688 6.5 C 10.746094 6.503906 10.625 6.433594 10.5625 6.289062 C 10.492188 6.144531 10.515625 6.007812 10.621094 5.886719 C 10.644531 5.867188 10.660156 5.847656 10.679688 5.824219 C 11.140625 5.363281 11.601562 4.898438 12.066406 4.433594 C 12.09375 4.40625 12.125 4.378906 12.160156 4.351562 C 12.214844 4.308594 12.285156 4.28125 12.359375 4.28125 C 12.382812 4.28125 12.402344 4.28125 12.429688 4.28125 C 17.996094 4.28125 23.566406 4.28125 29.132812 4.28125 C 29.171875 4.28125 29.210938 4.28125 29.25 4.289062 C 29.414062 4.316406 29.539062 4.464844 29.542969 4.632812 C 29.546875 4.804688 29.4375 4.957031 29.273438 4.996094 C 29.246094 5.003906 29.214844 5.007812 29.1875 5.011719 C 28.847656 5.042969 28.507812 5.066406 28.171875 5.09375 C 27.882812 5.121094 27.59375 5.144531 27.308594 5.164062 C 27.027344 5.191406 26.746094 5.210938 26.457031 5.234375 C 26.171875 5.257812 25.882812 5.285156 25.597656 5.304688 C 25.3125 5.328125 25.035156 5.351562 24.753906 5.375 C 24.460938 5.398438 24.171875 5.421875 23.875 5.449219 C 23.59375 5.472656 23.316406 5.492188 23.035156 5.519531 C 22.746094 5.542969 22.453125 5.566406 22.164062 5.585938 C 21.882812 5.613281 21.605469 5.632812 21.324219 5.65625 C 21.03125 5.683594 20.742188 5.707031 20.453125 5.726562 C 20.234375 5.742188 20.015625 5.765625 19.800781 5.78125 C 19.503906 5.804688 19.214844 5.828125 18.921875 5.855469 C 18.644531 5.878906 18.363281 5.898438 18.085938 5.921875 C 17.796875 5.945312 17.507812 5.96875 17.214844 5.988281 C 16.933594 6.015625 16.652344 6.035156 16.367188 6.058594 C 16.082031 6.085938 15.789062 6.105469 15.503906 6.128906 C 15.222656 6.152344 14.945312 6.175781 14.664062 6.199219 C 14.367188 6.222656 14.078125 6.25 13.785156 6.269531 C 13.507812 6.292969 13.230469 6.3125 12.953125 6.339844 C 12.65625 6.363281 12.359375 6.386719 12.066406 6.414062 C 11.78125 6.4375 11.503906 6.457031 11.222656 6.480469 C 11.113281 6.484375 11.011719 6.496094 10.929688 6.5 Z M 10.929688 6.5 "/>
</g>
</defs>
<g id="surface1">
<use xlink:href="#surface5" mask="url(#mask0)"/>
</g>
</svg>
