<?xml version="1.0" encoding="utf-8"?>
<!-- Generator: Adobe Illustrator 22.1.0, SVG Export Plug-In . SVG Version: 6.00 Build 0)  -->
<svg version="1.1" id="Camada_1" xmlns="http://www.w3.org/2000/svg" xmlns:xlink="http://www.w3.org/1999/xlink" x="0px" y="0px"
	 viewBox="0 0 932 668" style="enable-background:new 0 0 932 668;" xml:space="preserve">
<style type="text/css">
	.st0{opacity:0.8461;}
	.st1{fill:#591E29;}
</style>
<g class="st0">
	<g>
		<path class="st1" d="M492.6,329c2.9,0,5.9,0,8.8,0c0.2,0,0.3,0.1,0.4,0.2c0.2,0.2,0.1,0.6-0.2,0.6c-0.1,0-0.3,0-0.4,0.1
			c-0.4,0.1-0.9,0.1-1.3,0.2c-0.4,0.1-0.8,0.1-1.2,0.2c-0.4,0.1-0.8,0.1-1.2,0.2c-0.4,0.1-0.8,0.1-1.1,0.2c-0.4,0.1-0.8,0.1-1.2,0.2
			c-0.4,0.1-0.8,0.1-1.2,0.2c-0.4,0.1-0.8,0.1-1.2,0.2c-0.4,0.1-0.8,0.1-1.2,0.2c-0.4,0.1-0.9,0.1-1.3,0.2c-0.4,0.1-0.8,0.1-1.1,0.2
			c-0.4,0.1-0.8,0.1-1.2,0.2c-0.2,0-0.4,0.1-0.5,0.1c-0.2,0-0.3,0.1-0.3,0.3c0,0.1,0,0.2,0.1,0.3c0.1,0.1,0.2,0.3,0.3,0.4
			c1.1,1.4,2.2,2.7,3.3,4.1c0.9,1.2,1.8,2.3,2.8,3.5c1,1.2,2,2.5,2.9,3.7c0.5,0.7,1,1.3,1.6,2c0.1,0.2,0.3,0.2,0.5,0.1
			c0,0,0.1-0.1,0.1-0.1c0.6-0.8,1.2-1.6,1.8-2.4c1.5-1.9,3-3.9,4.5-5.8c1.1-1.4,2.2-2.8,3.3-4.3c1.3-1.7,2.6-3.3,3.9-5
			c0,0,0,0,0-0.1c0.1-0.2,0.1-0.3,0-0.5c-0.2-0.3-0.4-0.7-0.7-1c-0.8-1.3-1.6-2.6-2.4-3.8c-0.1-0.1-0.1-0.2-0.1-0.4
			c0.1-0.3,0.4-0.4,0.6-0.2c0,0,0,0,0.1,0.1c1.7,1.7,3.4,3.4,5.1,5.1c0,0,0,0,0.1,0.1c0.1,0.1,0.1,0.3,0,0.5
			c-0.1,0.1-0.1,0.2-0.2,0.3c-1.7,2-3.4,4-5.1,5.9c-1.7,2-3.4,4-5.2,5.9c-1.6,1.8-3.2,3.7-4.8,5.5c-0.3,0.4-0.7,0.8-1,1.1
			c0,0,0,0-0.1,0.1c-0.2,0.2-0.4,0.2-0.6,0c-0.2-0.2-0.3-0.4-0.5-0.6c-1.2-1.5-2.4-2.9-3.7-4.4c-1.2-1.4-2.4-2.8-3.5-4.2
			c-1.2-1.5-2.5-3-3.7-4.4c-1.1-1.3-2.3-2.7-3.4-4c-0.1-0.1-0.2-0.3-0.1-0.4c0.1-0.2,0.2-0.3,0.4-0.3c0,0,0.1,0,0.1,0
			C486.7,329,489.6,329,492.6,329z"/>
		<path class="st1" d="M486.3,323.8c-0.2,0-0.3-0.1-0.4-0.2c-0.1-0.2,0-0.3,0.1-0.4c0,0,0,0,0.1-0.1c0.5-0.5,1-1,1.5-1.5
			c0,0,0.1-0.1,0.1-0.1c0.1-0.1,0.1-0.1,0.2-0.1c0,0,0.1,0,0.1,0c6.2,0,12.4,0,18.7,0c0,0,0.1,0,0.1,0c0.2,0,0.3,0.2,0.3,0.4
			c0,0.2-0.1,0.4-0.3,0.4c0,0-0.1,0-0.1,0c-0.4,0-0.8,0.1-1.1,0.1c-0.3,0-0.6,0.1-1,0.1c-0.3,0-0.6,0.1-0.9,0.1
			c-0.3,0-0.6,0.1-1,0.1c-0.3,0-0.6,0.1-0.9,0.1c-0.3,0-0.7,0.1-1,0.1c-0.3,0-0.6,0.1-0.9,0.1c-0.3,0-0.6,0.1-1,0.1
			c-0.3,0-0.6,0.1-0.9,0.1c-0.3,0-0.6,0.1-1,0.1c-0.2,0-0.5,0-0.7,0.1c-0.3,0-0.7,0.1-1,0.1c-0.3,0-0.6,0-0.9,0.1
			c-0.3,0-0.6,0.1-1,0.1c-0.3,0-0.6,0.1-0.9,0.1c-0.3,0-0.6,0.1-1,0.1c-0.3,0-0.6,0.1-0.9,0.1c-0.3,0-0.7,0.1-1,0.1
			c-0.3,0-0.6,0.1-0.9,0.1c-0.3,0-0.7,0.1-1,0.1c-0.3,0-0.6,0.1-0.9,0.1C486.5,323.8,486.4,323.8,486.3,323.8z"/>
	</g>
</g>
</svg>
