<?xml version="1.0" encoding="utf-8"?>
<!-- Generator: Adobe Illustrator 22.1.0, SVG Export Plug-In . SVG Version: 6.00 Build 0)  -->
<svg version="1.1" id="Camada_1" xmlns="http://www.w3.org/2000/svg" xmlns:xlink="http://www.w3.org/1999/xlink" x="0px" y="0px"
	 viewBox="0 0 1028 780" style="enable-background:new 0 0 1028 780;" xml:space="preserve">
<style type="text/css">
	.st0{opacity:0.8461;}
	.st1{fill:#591E29;}
</style>
<g class="st0">
	<g>
		<path class="st1" d="M405,272.4c64.4,0,128.8,0,193.2-0.1c4.2,0,7.1,1.6,9.6,4.7c3.9,4.9,1.4,12.3-4.7,13.6
			c-3.1,0.7-6.4,1-9.5,1.5c-9.5,1.4-19,2.7-28.5,4.1c-8.4,1.2-16.9,2.4-25.3,3.6c-8.5,1.2-17,2.4-25.5,3.6
			c-8.4,1.2-16.8,2.4-25.1,3.6c-8.6,1.2-17.1,2.4-25.7,3.7c-8.4,1.2-16.9,2.4-25.3,3.6c-8.5,1.2-17,2.4-25.5,3.6
			c-8.4,1.2-16.9,2.4-25.3,3.6c-9.4,1.3-18.7,2.7-28.1,4c-8.4,1.2-16.8,2.4-25.1,3.6c-8.6,1.2-17.1,2.4-25.7,3.7
			c-4,0.6-8,1.1-12,1.7c-3.9,0.6-6.7,3.2-7.4,7c-0.5,2.5,0.3,4.7,1.8,6.7c2.5,3.2,5.1,6.4,7.6,9.7c23.8,30,47.5,60.1,71.3,90.1
			c20.2,25.6,40.5,51.1,60.7,76.7c21.4,27.1,42.9,54.2,64.3,81.3c11.5,14.5,23,29,34.5,43.5c3.1,3.9,7.5,4.9,11.4,2.5
			c1-0.7,2-1.6,2.7-2.6c13.5-17.2,26.9-34.4,40.4-51.7c33.1-42.4,66.3-84.9,99.4-127.3c24.3-31.1,48.5-62.2,72.8-93.2
			c28.6-36.6,57.2-73.2,85.7-109.8c0.3-0.4,0.7-0.9,1-1.3c2.5-3.3,2.7-6.7,0.5-10.2c-4.8-7.7-9.6-15.3-14.5-22.9
			c-17.7-28.1-35.5-56.2-53.2-84.3c-1.5-2.4-2.5-4.9-1.8-7.9c1.4-6.1,8.8-8.6,13.7-4.6c0.5,0.4,0.9,0.9,1.4,1.3
			c37,37,73.9,73.9,110.9,110.9c0.4,0.4,0.9,0.9,1.3,1.4c2.7,3.1,2.9,7.3,0.5,10.6c-1.5,2-3.1,3.8-4.8,5.6
			c-37.5,43.3-75.1,86.6-112.7,129.9c-37.7,43.4-75.3,86.9-113,130.3c-35.1,40.5-70.3,81-105.4,121.5c-7.2,8.3-14.3,16.5-21.5,24.8
			c-0.4,0.4-0.7,0.9-1.1,1.3c-3.7,4.1-9.5,4-13.1-0.1c-3.7-4.3-7.3-8.6-10.9-12.9c-26.8-31.8-53.5-63.6-80.3-95.4
			c-25.8-30.7-51.7-61.4-77.5-92.1c-27.3-32.4-54.5-64.8-81.8-97.2c-24.9-29.5-49.7-59.1-74.6-88.6c-2.2-2.7-3.3-5.5-2.3-8.9
			c1.1-3.6,4.2-5.9,7.9-5.9c0.6,0,1.1,0,1.7,0C276.2,272.4,340.6,272.4,405,272.4z"/>
		<path class="st1" d="M267.5,158.4c-4.5,0.1-7.4-1.6-9-5.1c-1.7-3.5-1.1-6.9,1.5-9.8c0.5-0.5,0.9-1,1.4-1.5
			c11.3-11.3,22.6-22.6,33.9-33.9c0.7-0.7,1.5-1.4,2.3-2c1.4-1.1,3.1-1.7,4.9-1.7c0.6,0,1.1,0,1.7,0c136.3,0,272.6,0,408.9,0
			c0.9,0,1.9,0,2.8,0.1c4,0.7,7.1,4.3,7.2,8.4c0.1,4.2-2.6,7.9-6.6,8.9c-0.7,0.2-1.4,0.3-2.1,0.4c-8.3,0.7-16.6,1.3-24.9,2
			c-7,0.6-14.1,1.2-21.1,1.7c-6.9,0.6-13.8,1.1-20.8,1.7c-7,0.6-14.1,1.2-21.1,1.7c-6.9,0.6-13.7,1.1-20.6,1.7
			c-7.2,0.6-14.3,1.2-21.5,1.8c-6.9,0.6-13.7,1.1-20.6,1.7c-7.1,0.6-14.2,1.2-21.3,1.7c-6.9,0.6-13.7,1.1-20.6,1.7
			c-7.1,0.6-14.2,1.2-21.3,1.7c-5.3,0.4-10.7,0.9-16,1.3c-7.2,0.6-14.3,1.2-21.5,1.8c-6.8,0.6-13.6,1.1-20.4,1.6
			c-7.1,0.6-14.2,1.2-21.3,1.7c-6.9,0.6-13.8,1.1-20.8,1.7c-7,0.6-14.1,1.1-21.1,1.7c-6.9,0.6-13.7,1.1-20.6,1.7
			c-7.2,0.6-14.3,1.2-21.5,1.7c-6.8,0.6-13.6,1.1-20.4,1.7c-7.2,0.6-14.5,1.2-21.7,1.8c-6.9,0.6-13.7,1.1-20.6,1.7
			C272,158.1,269.5,158.3,267.5,158.4z"/>
	</g>
</g>
</svg>
