<?xml version="1.0" encoding="utf-8"?>
<!-- Generator: Adobe Illustrator 22.1.0, SVG Export Plug-In . SVG Version: 6.00 Build 0)  -->
<svg version="1.1" id="Camada_1" xmlns="http://www.w3.org/2000/svg" xmlns:xlink="http://www.w3.org/1999/xlink" x="0px" y="0px"
	 viewBox="0 0 8777 1775" style="enable-background:new 0 0 8777 1775;" xml:space="preserve">
<style type="text/css">
	.st0{opacity:0.8461;}
	.st1{fill:#D5D5D5;}
	.st2{opacity:0.8846;fill:#D5D5D5;}
	.st3{opacity:0.8461;fill:#D5D5D5;}
	.st4{fill:#FFFFFF;}
</style>
<g>
	<g>
		<g class="st0">
			<g>
				<path class="st1" d="M6650,474.4c64.4,0,128.8,0,193.2-0.1c4.2,0,7.1,1.6,9.6,4.7c3.9,4.9,1.4,12.3-4.7,13.6
					c-3.1,0.7-6.4,1-9.5,1.5c-9.5,1.4-19,2.7-28.5,4.1c-8.4,1.2-16.9,2.4-25.3,3.6c-8.5,1.2-17,2.4-25.5,3.6
					c-8.4,1.2-16.8,2.4-25.1,3.6c-8.6,1.2-17.1,2.4-25.7,3.7c-8.4,1.2-16.9,2.4-25.3,3.6c-8.5,1.2-17,2.4-25.5,3.6
					c-8.4,1.2-16.9,2.4-25.3,3.6c-9.4,1.3-18.7,2.7-28.1,4c-8.4,1.2-16.8,2.4-25.1,3.6c-8.6,1.2-17.1,2.4-25.7,3.7
					c-4,0.6-8,1.1-12,1.7c-3.9,0.6-6.7,3.2-7.4,7c-0.5,2.5,0.3,4.7,1.8,6.7c2.5,3.2,5.1,6.4,7.6,9.7c23.8,30,47.5,60.1,71.3,90.1
					c20.2,25.6,40.5,51.1,60.7,76.7c21.4,27.1,42.9,54.2,64.3,81.3c11.5,14.5,23,29,34.5,43.5c3.1,3.9,7.5,4.9,11.4,2.5
					c1-0.7,2-1.6,2.7-2.6c13.5-17.2,26.9-34.4,40.4-51.7c33.1-42.4,66.3-84.9,99.4-127.3c24.3-31.1,48.5-62.2,72.8-93.2
					c28.6-36.6,57.2-73.2,85.7-109.8c0.4-0.4,0.7-0.9,1-1.3c2.5-3.3,2.7-6.7,0.5-10.2c-4.8-7.7-9.6-15.3-14.5-22.9
					c-17.7-28.1-35.5-56.2-53.2-84.3c-1.5-2.4-2.5-4.9-1.8-7.9c1.4-6.1,8.8-8.6,13.7-4.6c0.5,0.4,0.9,0.9,1.4,1.3
					c37,37,73.9,73.9,110.9,110.9c0.4,0.4,0.9,0.9,1.3,1.4c2.7,3.1,2.9,7.3,0.5,10.6c-1.5,2-3.1,3.8-4.8,5.6
					c-37.5,43.3-75.1,86.6-112.7,129.9c-37.7,43.4-75.3,86.9-113,130.3c-35.1,40.5-70.3,81-105.4,121.5
					c-7.2,8.3-14.3,16.5-21.5,24.8c-0.4,0.4-0.7,0.9-1.1,1.3c-3.7,4.1-9.5,4-13.1-0.1c-3.7-4.3-7.3-8.6-10.9-12.9
					c-26.8-31.8-53.5-63.6-80.3-95.4c-25.8-30.7-51.7-61.4-77.5-92.1c-27.3-32.4-54.5-64.8-81.8-97.2
					c-24.9-29.5-49.7-59.1-74.6-88.6c-2.2-2.7-3.3-5.5-2.3-8.9c1.1-3.6,4.2-5.9,7.9-5.9c0.6,0,1.1,0,1.7,0
					C6521.2,474.4,6585.6,474.4,6650,474.4z"/>
				<path class="st1" d="M6512.5,360.4c-4.5,0.1-7.4-1.6-9-5.1c-1.7-3.5-1.1-6.9,1.5-9.8c0.5-0.5,0.9-1,1.4-1.5
					c11.3-11.3,22.6-22.6,33.9-33.9c0.7-0.7,1.5-1.4,2.3-2c1.4-1.1,3.1-1.7,4.9-1.7c0.6,0,1.1,0,1.7,0c136.3,0,272.6,0,408.9,0
					c0.9,0,1.9,0,2.8,0.1c4,0.7,7.1,4.3,7.2,8.4c0.1,4.2-2.6,7.9-6.6,8.9c-0.7,0.2-1.4,0.3-2.1,0.4c-8.3,0.7-16.6,1.3-24.9,2
					c-7,0.6-14.1,1.2-21.1,1.7c-6.9,0.6-13.8,1.1-20.8,1.7c-7,0.6-14.1,1.2-21.1,1.7c-6.9,0.6-13.7,1.1-20.6,1.7
					c-7.2,0.6-14.3,1.2-21.5,1.8c-6.9,0.6-13.7,1.1-20.6,1.7c-7.1,0.6-14.2,1.2-21.3,1.7c-6.9,0.6-13.7,1.1-20.6,1.7
					c-7.1,0.6-14.2,1.2-21.3,1.7c-5.3,0.4-10.7,0.9-16,1.3c-7.2,0.6-14.3,1.2-21.5,1.8c-6.8,0.6-13.6,1.1-20.4,1.6
					c-7.1,0.6-14.2,1.2-21.3,1.7c-6.9,0.6-13.8,1.1-20.8,1.7c-7,0.6-14.1,1.1-21.1,1.7c-6.9,0.6-13.7,1.1-20.6,1.7
					c-7.2,0.6-14.3,1.2-21.5,1.7c-6.8,0.6-13.6,1.1-20.4,1.7c-7.2,0.6-14.5,1.2-21.7,1.8c-6.9,0.6-13.7,1.1-20.6,1.7
					C6517,360.1,6514.5,360.3,6512.5,360.4z"/>
			</g>
		</g>
		<g>
			<path class="st2" d="M6609.9,681.9c-189.8,50.1-324.7,177.8-324.7,327.4c0,3.4,0.2,6.8,0.4,10.1
				c6.1-148.9,145.7-274.5,338.4-320.8L6609.9,681.9z"/>
			<path class="st3" d="M6953,688.5l-13.9,16.1c192,40.3,332.8,162.5,338.8,308.2c0.1-3.2,0.3-6.4,0.3-9.6
				C7278.2,856.8,7142,732.6,6953,688.5z"/>
			<g>
				<path class="st4" d="M1374.2,1031.8l134.1-705.9h95.3L1765.9,726c30.4,79.6,47.1,136.1,61.8,196.9l2.1-1
					c4.2-63.9,11.5-122.5,29.3-221l71.2-374.9h82.7l-135.1,705.9H1792l-160.2-399c-34.6-86.9-50.3-137.2-66-203.2l-3.1,1
					c-7.3,66-18.9,136.1-36.7,232.5l-70.2,368.7H1374.2z"/>
				<path class="st4" d="M2179.6,808.7l-112.1,223.1h-92.2l365.5-705.9h102.6l97.4,705.9h-89l-28.3-223.1H2179.6z M2416.3,739.6
					L2389,535.3c-4.2-36.7-9.4-88-12.6-129.9h-2.1c-18.9,41.9-36.7,85.9-57.6,128.8L2211,739.6H2416.3z"/>
				<path class="st4" d="M2642.5,922.8c37.7,26.2,91.1,45,149.8,45c79.6,0,152.9-47.1,152.9-133c0-52.4-30.4-91.1-103.7-132
					c-90.1-48.2-140.3-104.7-140.3-181.2c0-125.7,108.9-207.4,238.8-207.4c68.1,0,119.4,20.9,144.5,37.7l-31.4,70.2
					c-22-12.6-66-33.5-122.5-32.5c-86.9,0-139.3,57.6-139.3,115.2s35.6,90.1,108.9,130.9c86.9,46.1,135.1,101.6,135.1,188.5
					c0,122.5-96.3,217.8-254.5,217.8c-71.2,0-140.3-23-169.7-48.2L2642.5,922.8z"/>
				<path class="st4" d="M3604,1008.7c-39.8,17.8-103.7,33.5-183.3,33.5c-178,0-285.9-112.1-285.9-292.2
					c0-133,53.4-259.7,150.8-340.4c72.3-61.8,162.3-95.3,266-95.3c78.5,0,134.1,19.9,152.9,34.6l-28.3,70.2
					c-26.2-15.7-76.5-29.3-139.3-29.3c-73.3,0-147.7,28.3-202.1,79.6c-66,61.8-107.9,161.3-107.9,268.1
					c0,126.7,57.6,230.4,214.7,230.4c53.4,0,112.1-10.5,150.8-30.4L3604,1008.7z"/>
				<path class="st4" d="M3917.2,325.9l-134.1,705.9h-86.9l134.1-705.9H3917.2z"/>
				<path class="st4" d="M4533,1031.8l50.3-381.2c9.4-67,25.1-170.7,38.7-238.8h-4.2c-32.5,71.2-71.2,155-110,227.3l-209.5,388.6
					h-67L4179,647.4c-10.5-81.7-17.8-163.4-22-235.6h-2.1c-15.7,64.9-37.7,171.8-54.5,238.8l-96.4,381.2h-81.7l183.3-705.9h111
					l55.5,405.3c7.3,59.7,15.7,123.6,16.8,175.9h3.1c22-52.4,52.4-115.2,82.7-173.9l218.9-407.4h113.1l-90.1,705.9H4533z"/>
				<path class="st4" d="M5164.6,699.8H4908l-48.2,257.6h289.1l-14.7,74.4h-376l134.1-705.9h360.3l-14.7,74.4h-272.3l-42.9,226.2
					h256.6L5164.6,699.8z"/>
				<path class="st4" d="M5250.5,1031.8l134.1-705.9h95.3L5642.2,726c30.4,79.6,47.1,136.1,61.8,196.9l2.1-1
					c4.2-63.9,11.5-122.5,29.3-221l71.2-374.9h82.7l-135.1,705.9h-85.9l-160.2-399c-34.6-86.9-50.3-137.2-66-203.2l-3.1,1
					c-7.3,66-18.9,136.1-36.7,232.5l-70.2,368.7H5250.5z"/>
				<path class="st4" d="M6154.3,401.3H5948l14.7-75.4h500.6l-14.7,75.4h-207.4l-119.4,630.5h-86.9L6154.3,401.3z"/>
			</g>
			<g>
				<path class="st1" d="M6526.4,1435.5l32.5-33.8c14.2,31.3,36.3,46.9,66.1,46.9c19.8,0,35.2-7.7,46.3-23.1
					c11.1-15.4,20.3-41.6,27.6-78.7l54.3-280.3H6690l33.4-36h152.7l-36.5,36h-36.5l-46.2,238.1c-10.3,52.5-28.4,92.8-54.3,121.1
					c-25.9,28.3-57.8,42.4-95.8,42.4C6577.4,1468.1,6550.6,1457.2,6526.4,1435.5z"/>
				<path class="st1" d="M6932.3,1396.2c-20.7,0-38-8.3-51.8-24.9c-13.8-16.6-20.7-37.3-20.7-62.1c0-46.6,17.2-89.8,51.7-129.4
					s72-59.4,112.6-59.4c22,0,40.1,8.1,54.3,24.3s21.3,36.8,21.3,61.9c0,48.4-17.2,92.1-51.7,131.1
					C7013.5,1376.7,6974.9,1396.2,6932.3,1396.2z M6959.3,1375c23.4,0,44-15.4,61.8-46.3c17.8-30.9,26.7-66.7,26.7-107.5
					c0-53.6-16-80.4-47.9-80.4c-22.6,0-42.9,15.9-61,47.7c-18.1,31.8-27.1,67.7-27.1,107.5C6911.6,1348.7,6927.5,1375,6959.3,1375z"
					/>
				<path class="st1" d="M7304.9,1316.5l-4.3,22.6c-34.6,38.1-65.7,57.1-93.2,57.1c-22.8,0-34.1-12.2-34.1-36.7
					c0-8.3,1.8-21.9,5.5-40.8l16.4-84.5c4.4-24,6.6-39.9,6.6-47.9c0-13.6-5.1-20.4-15.4-20.4c-7.1,0-19.8,2.8-38.2,8.3l2.8-14.8
					l115.9-38.9l-18,77.7l-23.2,120c-3.6,18.8-5.5,30.8-5.5,36c0,10.5,4.7,15.8,14,15.8C7249.9,1369.9,7273.5,1352.1,7304.9,1316.5z
					 M7217.9,1078.2l15.9-33l66.8-44.7l-20.4,44.7L7217.9,1078.2z"/>
				<path class="st1" d="M7510.8,1258.2h-4.3c-17.8,40.6-39.3,73.8-64.4,99.5c-25.1,25.7-48.6,38.5-70.6,38.5
					c-33.3,0-50-21.4-50-64.1c0-47.1,18.3-93.3,55-138.5c37.9-46.8,84.2-70.2,138.9-70.2c22.6,0,46.2,1,70.9,2.9l-17.1,71.9l-23,120
					c-3.6,18.8-5.5,30.9-5.5,36.4c0,10.2,4.7,15.3,14,15.3c15.8,0,39.3-17.8,70.6-53.4l-4.3,22.6c-34.7,38.1-65.8,57.1-93.3,57.1
					c-23,0-34.4-12.2-34.4-36.7c0-8.1,1.9-21.9,5.7-41.3L7510.8,1258.2z M7529.8,1161c-19.9-9.1-39.6-13.6-59-13.6
					c-28.8,0-51.7,18.6-69,55.9c-20.2,44.1-30.3,83.7-30.3,118.8c0,25.4,7.3,38.1,21.8,38.1c13.6,0,33.1-14.6,58.6-43.8
					c25.5-29.2,47.9-62.6,67.2-100.2L7529.8,1161z"/>
				<path class="st1" d="M7618.5,1381.8l31.3-32.8c20.5,15.4,41.4,23.1,62.7,23.1c13.1,0,24.1-3.5,33.1-10.6
					c9-7,13.5-15.7,13.5-26.1c0-11.5-8.9-27.2-26.8-47.1l-21.6-24.3c-21-23.6-31.5-43.4-31.5-59.3c0-22,10.2-41.6,30.6-58.7
					c20.4-17.1,43.7-25.6,69.9-25.6c14.4,0,30.5,3.1,48.4,9.2l-10.4,53.7h-15.2l0.7-4.1c0.3-1.5,0.5-3.2,0.5-5.1
					c0-21.9-13.7-32.8-41.1-32.8c-30.7,0-46.1,12.6-46.1,37.9c0,12.8,9.2,29.8,27.5,51l19.4,22.1c21.2,24.5,31.8,44.5,31.8,60.2
					c0,21.7-11.2,41.1-33.7,58.1c-22.4,17-48,25.5-76.6,25.5C7664.8,1396.2,7642.7,1391.4,7618.5,1381.8z"/>
			</g>
		</g>
	</g>
</g>
</svg>
